<svg xmlns="http://www.w3.org/2000/svg" version="1.1" xmlns:xlink="http://www.w3.org/1999/xlink" xmlns:svgjs="http://svgjs.com/svgjs" width="1440" height="560" preserveAspectRatio="none" viewBox="0 0 1440 560"><g mask="url(&quot;#SvgjsMask1000&quot;)" fill="none"><rect width="1440" height="560" x="0" y="0" fill="#0e2a47"></rect><path d="M83.13 140C53.96 65.33 -15.29 37.64 0 0C13.15 -32.36 70 0 140 0C210 0 210 0 280 0C338.12 0 342.05 -9.38 396.23 0C412.05 2.74 408.06 24.23 420 24.23C432.06 24.23 428.24 2.77 444.23 0C498.24 -9.35 502.12 0 560 0C630 0 630 0 700 0C770 0 770 0 840 0C910 0 910 0 980 0C1050 0 1050 0 1120 0C1190 0 1190 0 1260 0C1330 0 1330 0 1400 0C1459.3 0 1467.56 -14.04 1518.61 0C1537.56 5.21 1536.76 17.32 1540 38.5C1547.46 87.32 1540 89.25 1540 140C1540 210 1540 210 1540 280C1540 350 1540 350 1540 420C1540 490 1575 525 1540 560C1505 595 1470 560 1400 560C1351.13 560 1346.65 571.84 1302.26 560C1276.65 553.17 1286.07 530.06 1260 522.67C1194.94 504.22 1186.88 498.12 1120 508.31C1064.38 516.78 1068.89 540.1 1015 560C998.89 565.95 997.5 560 980 560C910 560 910 560 840 560C770 560 770 560 700 560C671.66 560 665.68 573.97 643.33 560C595.68 530.22 597.54 472.5 560 472.5C527.65 472.5 542.39 535.73 503.55 560C472.39 579.48 461.77 560 420 560C361.13 560 359.44 565.8 302.27 560C289.44 558.7 292.17 550.84 280 545.8C211.03 517.24 212.27 504.13 140 492.8C72.27 482.18 44.2 524.87 0 501.89C-25.8 488.47 0 460.94 0 420C0 381.25 -20.83 369.16 0 342.5C33.86 299.16 89.87 327.52 109.38 280C131.44 226.27 108.65 205.33 83.13 140" stroke="rgba(51, 121, 194, 0.58)" stroke-width="2"></path><path d="M560 268.33C551.85 272.35 546 274.64 546 280C546 284.85 552.4 285.55 560 288.75C629.4 317.99 627.8 335.93 700 344.88C767.8 353.28 778.34 347.17 840 323.45C862.66 314.73 868.64 302.32 868.64 280C868.64 254.35 864.99 238.76 840 227.5C780.67 200.76 767.14 194.21 700 204C627.14 214.63 628.85 234.35 560 268.33" stroke="rgba(51, 121, 194, 0.58)" stroke-width="2"></path><path d="M1260 240.88C1238.06 240.88 1217.78 260.04 1217.78 280C1217.78 300.71 1237.98 322.22 1260 322.22C1284.19 322.22 1310.19 300.64 1310.19 280C1310.19 259.97 1284.26 240.88 1260 240.88" stroke="rgba(51, 121, 194, 0.58)" stroke-width="2"></path><path d="M980 398.07C962.88 398.07 945.66 403.49 945.66 420C945.66 457.79 962.97 506.67 980 506.67C996.99 506.67 1013.7 457.91 1013.7 420C1013.7 403.61 996.9 398.07 980 398.07" stroke="rgba(51, 121, 194, 0.58)" stroke-width="2"></path><path d="M140 75.38C102.63 60.01 89.74 24.24 89.74 0C89.74 -13.45 114.87 0 140 0C210 0 210 0 280 0C305.1 0 330.19 -13.72 330.19 0C330.19 25.4 317.94 63.2 280 78.24C222.85 100.89 197.76 99.13 140 75.38" stroke="rgba(51, 121, 194, 0.58)" stroke-width="2"></path><path d="M343.64 140C382.32 116.61 381.65 91.54 420 91.54C459.21 91.54 498.75 111.75 498.75 140C498.75 173.04 454.27 173.02 420 214.12C395.91 243.02 382.03 246.69 382.03 280C382.03 315.76 393.74 322.11 420 352.26C454.72 392.11 498.36 376.73 504 420C511.91 480.6 482.71 500.64 447.1 560C440.71 570.64 433.55 560 420 560C400.91 560 398.64 567.8 381.82 560C328.64 535.33 330.04 528.83 280 495.07C226.28 458.83 198 471.67 174.29 420C148.66 364.14 155.17 340.29 181.31 280C208.02 218.4 226.29 222.53 280 176.21C307.46 152.53 312.32 158.94 343.64 140" stroke="rgba(51, 121, 194, 0.58)" stroke-width="2"></path><path d="M560 78.75C523.18 56.64 511.54 25.84 511.54 0C511.54 -13.54 535.77 0 560 0C630 0 630 0 700 0C745.09 0 760.64 -23.85 790.17 0C830.64 32.69 811.39 58.93 840 113.08C848.37 128.93 864.14 128.34 864.14 140C864.14 149.09 853.02 154.58 840 154.58C815.95 154.58 814.97 147.38 790 140C744.97 126.69 745.36 125.27 700 113.19C630.36 94.64 617.41 113.23 560 78.75" stroke="rgba(51, 121, 194, 0.58)" stroke-width="2"></path><path d="M1073.33 140C1096.92 86.08 1046 49.68 1062.56 0C1069.33 -20.32 1091.28 0 1120 0C1163.07 0 1166.98 -11.52 1206.15 0C1236.98 9.07 1235.99 41.18 1260 41.18C1278.13 41.18 1268.14 6.56 1290.43 0C1338.14 -14.03 1345.22 0 1400 0C1435 0 1447.12 -20.59 1470 0C1517.12 42.41 1508.1 62.2 1540 126C1543.1 132.2 1540 133 1540 140C1540 156.47 1548.1 159.23 1540 172.94C1506.73 229.23 1472.32 219.64 1457.27 280C1441.52 343.17 1450.88 361.52 1478.4 420C1492.25 449.43 1527.49 427.38 1540 455.81C1558.29 497.38 1569.87 537.77 1540 560C1499.87 589.87 1470 560 1400 560C1384.15 560 1380.89 568.61 1368.3 560C1310.89 520.77 1322.98 491.1 1260 464.33C1198.83 438.33 1185.55 470.47 1120 454.46C1094.81 448.31 1100.54 435.5 1078.52 420C1030.54 386.22 1025.06 392.98 980 355.9C940 322.98 908.41 319.58 908.41 280C908.41 235.98 936.77 225.4 980 188.7C1019.23 155.4 1055.64 180.43 1073.33 140" stroke="rgba(51, 121, 194, 0.58)" stroke-width="2"></path><path d="M1260 189.41C1209.18 189.41 1162.22 233.77 1162.22 280C1162.22 327.96 1209.01 377.78 1260 377.78C1316.01 377.78 1376.23 327.8 1376.23 280C1376.23 233.62 1316.18 189.41 1260 189.41" stroke="rgba(51, 121, 194, 0.58)" stroke-width="2"></path><path d="M0 405C17.87 405 46.67 412.31 46.67 420C46.67 427.73 17.66 435.85 0 435.85C-5.68 435.85 0 427.92 0 420C0 412.5 -5.47 405 0 405" stroke="rgba(51, 121, 194, 0.58)" stroke-width="2"></path><path d="M723.33 420C751.36 378.95 785.71 383.79 840 383.79C863.85 383.79 866.19 397.24 879.62 420C918.16 485.34 955.77 518.2 943.94 560C935.96 588.2 891.97 560 840 560C779.83 560 746.61 592.35 719.65 560C688.28 522.35 691.19 467.06 723.33 420" stroke="rgba(51, 121, 194, 0.58)" stroke-width="2"></path><path d="M700 38.72C659.4 38.72 609 10.08 609 0C609 -9.28 654.5 0 700 0C715.42 0 730.85 -7.43 730.85 0C730.85 11.93 720.32 38.72 700 38.72" stroke="rgba(51, 121, 194, 0.58)" stroke-width="2"></path><path d="M1288 140C1278.26 91.14 1320.18 57.92 1366.52 0C1376.18 -12.08 1383.26 0 1400 0C1410.7 0 1419.91 -9.28 1421.39 0C1431.11 60.72 1430.91 73.13 1422.4 140C1420.22 157.13 1415.93 168 1400 168C1348.73 168 1295 175.14 1288 140" stroke="rgba(51, 121, 194, 0.58)" stroke-width="2"></path><path d="M238.69 280C243.83 252.52 259.16 236.55 280 236.55C301.17 236.55 311.36 252.73 322.71 280C349.54 344.45 370.08 367.21 356.36 420C348.72 449.38 316.29 444.35 280 444.35C260.96 444.35 250.48 438.96 245.71 420C229.82 356.79 226.68 344.25 238.69 280" stroke="rgba(51, 121, 194, 0.58)" stroke-width="2"></path><path d="M948.18 280C948.18 260.44 958.42 239.42 980 239.42C1028.17 239.42 1087.69 261.24 1087.69 280C1087.69 298.4 1029.44 313.73 980 313.73C959.68 313.73 948.18 297.59 948.18 280" stroke="rgba(51, 121, 194, 0.58)" stroke-width="2"></path><path d="M781.05 560C781.05 527.33 812.06 461.18 840 461.18C866.99 461.18 890.91 526.11 890.91 560C890.91 575.52 865.45 560 840 560C810.53 560 781.05 576.74 781.05 560" stroke="rgba(51, 121, 194, 0.58)" stroke-width="2"></path><path d="M1491 560C1491 554.02 1522.77 537.21 1540 537.21C1547.27 537.21 1547.78 556.38 1540 560C1523.28 567.78 1491 565.42 1491 560" stroke="rgba(51, 121, 194, 0.58)" stroke-width="2"></path></g><defs><mask id="SvgjsMask1000"><rect width="1440" height="560" fill="#ffffff"></rect></mask></defs></svg>